# xmcd
#
# Track frame offsets: 
#        150
#        14453
#        31404
#        57355
#        75550
#        90477
#        112973
#        130092
#        150113
#        168938
#        179616
#
# Disc length: 2861 seconds
#
# Revision: 0
# Processed by: cddbd v1.5.2PL0 Copyright (c) Steve Scherf et al.
# Submitted via: ExactAudioCopy v0.99pb4
#
DISCID=780b2b0b
DTITLE=Township - Township
DYEAR=2008
DGENRE=Rock
TTITLE0=Sinister Minister
TTITLE1=Beaver Fever
TTITLE2=Beyond Free
TTITLE3=Goodnight Moon
TTITLE4=Good Girl
TTITLE5=Moderated Man
TTITLE6=Winter Song
TTITLE7=Jack Shack
TTITLE8=Burnin
TTITLE9=The Happy Pumpkin
TTITLE10=St. Anthony
EXTD=
EXTT0=
EXTT1=
EXTT2=
EXTT3=
EXTT4=
EXTT5=
EXTT6=
EXTT7=
EXTT8=
EXTT9=
EXTT10=
PLAYORDER=
